# xmcd CD database file
#
# Track frame offsets:
#	150
#	21107
#	47272
#	68877
#	88857
#	104465
#	121745
#	144020
#	163277
#	181105
#
# Disc length: 2644 seconds
#
# Revision: 0
# Processed by: cddbd v1.5.1PL0 Copyright (c) Steve Scherf et al.
# Submitted via: CDex 1.51
#
DISCID=790a520a
DTITLE=とんねるず - 河口湖
DYEAR=1987
DGENRE=Comedy
TTITLE0=ジャニージェーン
TTITLE1=愛の狩人
TTITLE2=なぐさめ
TTITLE3=クリスティーナ
TTITLE4=SOMEDAY
TTITLE5=All or Nothing
TTITLE6=なお、あなたを・・・・
TTITLE7=君を万引きしたい
TTITLE8=そこはかとなく揺らめきハート
TTITLE9=おらおら<Remix>
EXTD=YEAR: 1987
EXTT0=
EXTT1=
EXTT2=
EXTT3=
EXTT4=
EXTT5=
EXTT6=
EXTT7=
EXTT8=
EXTT9=
PLAYORDER=
